<svg width="144" height="144" viewBox="0 0 144 144" fill="none" xmlns="http://www.w3.org/2000/svg">
<rect width="144" height="144" rx="15" fill="#171717"/>
<path d="M73.3809 81.4521H59.1211V69.8242H73.3809C75.3587 69.8242 76.9697 69.3776 78.2139 68.4844C79.4899 67.5911 80.415 66.363 80.9893 64.7998C81.5635 63.2048 81.8506 61.4183 81.8506 59.4404C81.8506 57.4307 81.5475 55.5645 80.9414 53.8418C80.3672 52.0872 79.458 50.6676 78.2139 49.583C77.0016 48.4984 75.3906 47.9561 73.3809 47.9561H63.6191V106H49.6465V36.3281H73.3809C78.0703 36.3281 82.1058 37.3171 85.4873 39.2949C88.8688 41.2728 91.4528 44.0003 93.2393 47.4775C95.0576 50.9229 95.9668 54.8786 95.9668 59.3447C95.9668 63.8428 95.0576 67.7507 93.2393 71.0684C91.4528 74.3542 88.8688 76.9062 85.4873 78.7246C82.1058 80.543 78.0703 81.4521 73.3809 81.4521Z" fill="white"/>
</svg>
