<svg width="121" height="31" viewBox="0 0 121 31" fill="none" xmlns="http://www.w3.org/2000/svg">
<path d="M113.078 30.895C110.864 30.895 109.264 30.6017 108.278 30.015C107.291 29.4283 106.651 28.4417 106.358 27.055C106.091 25.6683 105.958 23.4417 105.958 20.375C105.958 17.2817 106.091 15.0417 106.358 13.655C106.651 12.2683 107.291 11.295 108.278 10.735C109.264 10.1483 110.864 9.85501 113.078 9.85501C115.291 9.85501 116.891 10.1483 117.878 10.735C118.864 11.295 119.491 12.2683 119.758 13.655C120.051 15.0417 120.198 17.2817 120.198 20.375C120.198 23.4417 120.051 25.6683 119.758 27.055C119.491 28.4417 118.864 29.4283 117.878 30.015C116.891 30.6017 115.291 30.895 113.078 30.895ZM113.078 27.175C114.038 27.175 114.691 27.0417 115.038 26.775C115.411 26.4817 115.638 25.9083 115.718 25.055C115.824 24.2017 115.878 22.6417 115.878 20.375C115.878 18.0817 115.824 16.5217 115.718 15.695C115.638 14.8417 115.411 14.2817 115.038 14.015C114.691 13.7217 114.038 13.575 113.078 13.575C112.118 13.575 111.451 13.7217 111.078 14.015C110.731 14.2817 110.504 14.8417 110.398 15.695C110.318 16.5217 110.278 18.0817 110.278 20.375C110.278 22.6417 110.318 24.2017 110.398 25.055C110.504 25.9083 110.731 26.4817 111.078 26.775C111.451 27.0417 112.118 27.175 113.078 27.175Z" fill="#D6D3D1"/>
<path d="M97.9232 5.25501V0.855011H102.323V5.25501H97.9232ZM97.9632 30.575V10.175H102.283V30.575H97.9632Z" fill="#D6D3D1"/>
<path d="M89.4084 30.575V0.855011H93.7284V30.575H89.4084Z" fill="#D6D3D1"/>
<path d="M78.5856 30.895C76.3723 30.895 74.7723 30.6017 73.7856 30.015C72.799 29.4283 72.159 28.4417 71.8656 27.055C71.599 25.6683 71.4656 23.4417 71.4656 20.375C71.4656 17.2817 71.599 15.0417 71.8656 13.655C72.159 12.2683 72.799 11.295 73.7856 10.735C74.7723 10.1483 76.3723 9.85501 78.5856 9.85501C80.799 9.85501 82.399 10.1483 83.3856 10.735C84.3723 11.295 84.999 12.2683 85.2656 13.655C85.559 15.0417 85.7056 17.2817 85.7056 20.375C85.7056 23.4417 85.559 25.6683 85.2656 27.055C84.999 28.4417 84.3723 29.4283 83.3856 30.015C82.399 30.6017 80.799 30.895 78.5856 30.895ZM78.5856 27.175C79.5456 27.175 80.199 27.0417 80.5456 26.775C80.919 26.4817 81.1456 25.9083 81.2256 25.055C81.3323 24.2017 81.3856 22.6417 81.3856 20.375C81.3856 18.0817 81.3323 16.5217 81.2256 15.695C81.1456 14.8417 80.919 14.2817 80.5456 14.015C80.199 13.7217 79.5456 13.575 78.5856 13.575C77.6256 13.575 76.959 13.7217 76.5856 14.015C76.239 14.2817 76.0123 14.8417 75.9056 15.695C75.8256 16.5217 75.7856 18.0817 75.7856 20.375C75.7856 22.6417 75.8256 24.2017 75.9056 25.055C76.0123 25.9083 76.239 26.4817 76.5856 26.775C76.959 27.0417 77.6256 27.175 78.5856 27.175Z" fill="#D6D3D1"/>
<path d="M61.585 13.895H58.945V10.175H61.585V8.29501C61.585 5.94834 61.7983 4.26834 62.225 3.25501C62.6517 2.24168 63.3717 1.58834 64.385 1.29501C65.425 1.00168 67.0917 0.855011 69.385 0.855011V4.21501C68.3183 4.21501 67.545 4.28168 67.065 4.41501C66.6117 4.54834 66.305 4.82834 66.145 5.25501C65.985 5.68168 65.905 6.37501 65.905 7.33501V10.175H69.385V13.895H65.905V30.575H61.585V13.895Z" fill="#D6D3D1"/>
<path d="M49.9444 30.575V13.895H47.2644V10.175H49.9444V4.255H54.2644V10.175H57.5444V13.895H54.2644V30.575H49.9444Z" fill="#D6D3D1"/>
<path d="M35.9319 10.175H39.8919L40.0519 13.655H40.3319C40.7319 12.215 41.3186 11.2283 42.0919 10.695C42.8919 10.135 43.9319 9.85501 45.2119 9.85501V14.455C43.9852 14.455 43.0119 14.6683 42.2919 15.095C41.5719 15.5217 41.0519 16.215 40.7319 17.175C40.4119 18.135 40.2519 19.4683 40.2519 21.175V30.575H35.9319V10.175Z" fill="#D6D3D1"/>
<path d="M25.1091 30.895C22.8957 30.895 21.2957 30.6017 20.3091 30.015C19.3224 29.4283 18.6824 28.4417 18.3891 27.055C18.1224 25.6683 17.9891 23.4417 17.9891 20.375C17.9891 17.2817 18.1224 15.0417 18.3891 13.655C18.6824 12.2683 19.3224 11.295 20.3091 10.735C21.2957 10.1483 22.8957 9.85501 25.1091 9.85501C27.3224 9.85501 28.9224 10.1483 29.9091 10.735C30.8957 11.295 31.5224 12.2683 31.7891 13.655C32.0824 15.0417 32.2291 17.2817 32.2291 20.375C32.2291 23.4417 32.0824 25.6683 31.7891 27.055C31.5224 28.4417 30.8957 29.4283 29.9091 30.015C28.9224 30.6017 27.3224 30.895 25.1091 30.895ZM25.1091 27.175C26.0691 27.175 26.7224 27.0417 27.0691 26.775C27.4424 26.4817 27.6691 25.9083 27.7491 25.055C27.8557 24.2017 27.9091 22.6417 27.9091 20.375C27.9091 18.0817 27.8557 16.5217 27.7491 15.695C27.6691 14.8417 27.4424 14.2817 27.0691 14.015C26.7224 13.7217 26.0691 13.575 25.1091 13.575C24.1491 13.575 23.4824 13.7217 23.1091 14.015C22.7624 14.2817 22.5357 14.8417 22.4291 15.695C22.3491 16.5217 22.3091 18.0817 22.3091 20.375C22.3091 22.6417 22.3491 24.2017 22.4291 25.055C22.5357 25.9083 22.7624 26.4817 23.1091 26.775C23.4824 27.0417 24.1491 27.175 25.1091 27.175Z" fill="#D6D3D1"/>
<path d="M0 3.05502H8.64C10.5333 3.05502 11.96 3.41502 12.92 4.13502C13.9067 4.82836 14.56 5.81502 14.88 7.09502C15.2267 8.37502 15.4 10.0684 15.4 12.175C15.4 14.2017 15.24 15.8684 14.92 17.175C14.6 18.455 13.9333 19.4684 12.92 20.215C11.9333 20.9617 10.48 21.335 8.56 21.335H4.56V30.575H0V3.05502ZM7.48 17.215C8.52 17.215 9.26667 17.0817 9.72 16.815C10.1733 16.5484 10.4667 16.0817 10.6 15.415C10.7333 14.7484 10.8 13.6684 10.8 12.175C10.8 10.7084 10.7333 9.64169 10.6 8.97502C10.4667 8.30836 10.1733 7.84169 9.72 7.57502C9.26667 7.30836 8.53333 7.17502 7.52 7.17502H4.56V17.215H7.48Z" fill="#D6D3D1"/>
</svg>
